HIERARCHY
ROOT Hips
{
	OFFSET 0.00000 0.00000 0.00000
	CHANNELS 6 Xposition Yposition Zposition Zrotation Yrotation Xrotation 
	JOINT LHipJoint
	{
		OFFSET 0 0 0
		CHANNELS 3 Zrotation Yrotation Xrotation
		JOINT LeftUpLeg
		{
			OFFSET 1.36337 -1.57426 1.11036
			CHANNELS 3 Zrotation Yrotation Xrotation
			JOINT LeftLeg
			{
				OFFSET 2.38468 -6.55187 0.00000
				CHANNELS 3 Zrotation Yrotation Xrotation
				JOINT LeftFoot
				{
					OFFSET 2.37166 -6.51609 0.00000
					CHANNELS 3 Zrotation Yrotation Xrotation
					JOINT LeftToeBase
					{
						OFFSET 0.29078 -0.79891 2.01393
						CHANNELS 3 Zrotation Yrotation Xrotation
						End Site
						{
							OFFSET 0.00000 -0.00000 1.07924
						}
					}
				}
			}
		}
	}
	JOINT RHipJoint
	{
		OFFSET 0 0 0
		CHANNELS 3 Zrotation Yrotation Xrotation
		JOINT RightUpLeg
		{
			OFFSET -1.36349 -1.57426 1.11036
			CHANNELS 3 Zrotation Yrotation Xrotation
			JOINT RightLeg
			{
				OFFSET -2.29562 -6.30717 0.00000
				CHANNELS 3 Zrotation Yrotation Xrotation
				JOINT RightFoot
				{
					OFFSET -2.40985 -6.62100 0.00000
					CHANNELS 3 Zrotation Yrotation Xrotation
					JOINT RightToeBase
					{
						OFFSET -0.23197 -0.63733 1.92232
						CHANNELS 3 Zrotation Yrotation Xrotation
						End Site
						{
							OFFSET -0.00000 -0.00000 1.01562
						}
					}
				}
			}
		}
	}
	JOINT LowerBack
	{
		OFFSET 0 0 0
		CHANNELS 3 Zrotation Yrotation Xrotation
		JOINT Spine
		{
			OFFSET -0.08565 2.03602 -0.24562
			CHANNELS 3 Zrotation Yrotation Xrotation
			JOINT Spine1
			{
				OFFSET -0.00036 2.05693 0.00216
				CHANNELS 3 Zrotation Yrotation Xrotation
				JOINT Neck
				{
					OFFSET 0 0 0
					CHANNELS 3 Zrotation Yrotation Xrotation
					JOINT Neck1
					{
						OFFSET -0.03664 1.69515 0.31789
						CHANNELS 3 Zrotation Yrotation Xrotation
						JOINT Head
						{
							OFFSET 0.00932 1.70181 -0.46013
							CHANNELS 3 Zrotation Yrotation Xrotation
							End Site
							{
								OFFSET 0.01243 1.77620 -0.19377
							}
						}
					}
				}
				JOINT LeftShoulder
				{
					OFFSET 0 0 0
					CHANNELS 3 Zrotation Yrotation Xrotation
					JOINT LeftArm
					{
						OFFSET 3.74344 0.81315 -0.36647
						CHANNELS 3 Zrotation Yrotation Xrotation
						JOINT LeftForeArm
						{
							OFFSET 4.97185 -0.00000 -0.00000
							CHANNELS 3 Zrotation Yrotation Xrotation
							JOINT LeftHand
							{
								OFFSET 3.35811 -0.00000 0.00000
								CHANNELS 3 Zrotation Yrotation Xrotation
								JOINT LeftFingerBase
								{
									OFFSET 0 0 0
									CHANNELS 3 Zrotation Yrotation Xrotation
									JOINT LeftHandIndex1
									{
										OFFSET 0.62278 -0.00000 0.00000
										CHANNELS 3 Zrotation Yrotation Xrotation
										End Site
										{
											OFFSET 0.50210 -0.00000 0.00000
										}
									}
								}
								JOINT LThumb
								{
									OFFSET 0 0 0
									CHANNELS 3 Zrotation Yrotation Xrotation
									End Site
									{
										OFFSET 0.50976 -0.00000 0.50976
									}
								}
							}
						}
					}
				}
				JOINT RightShoulder
				{
					OFFSET 0 0 0
					CHANNELS 3 Zrotation Yrotation Xrotation
					JOINT RightArm
					{
						OFFSET -3.75385 0.50666 -0.06525
						CHANNELS 3 Zrotation Yrotation Xrotation
						JOINT RightForeArm
						{
							OFFSET -4.96493 -0.00000 -0.00000
							CHANNELS 3 Zrotation Yrotation Xrotation
							JOINT RightHand
							{
								OFFSET -3.34929 -0.00000 0.00000
								CHANNELS 3 Zrotation Yrotation Xrotation
								JOINT RightFingerBase
								{
									OFFSET 0 0 0
									CHANNELS 3 Zrotation Yrotation Xrotation
									JOINT RightHandIndex1
									{
										OFFSET -0.63804 -0.00000 0.00000
										CHANNELS 3 Zrotation Yrotation Xrotation
										End Site
										{
											OFFSET -0.51441 -0.00000 0.00000
										}
									}
								}
								JOINT RThumb
								{
									OFFSET 0 0 0
									CHANNELS 3 Zrotation Yrotation Xrotation
									End Site
									{
										OFFSET -0.52226 -0.00000 0.52226
									}
								}
							}
						}
					}
				}
			}
		}
	}
}
MOTION
Frames: 14
Frame Time: .0083333
-8.5792 1.4647 1.3423 0 0 0 0 0 0 -21 0 0 0 0 0 0 0 0 0 0 0 0 0 0 21 0 0 0 0 0 0 0 0 0 0 0 0 0 0 0 0 0 0 0 0 0 0 -16 0 0 21 0 0 11 0 0 0 -8 0 0 0 0 0 0 0 0 0 0 0 0 0 0 0 0 0 0 0 0 8 0 0 0 0 0 0 0 0 0 0 0 0 0 0 0 0 0
-8.5792 1.4647 1.3423 41.9716 84.2018 139.9130 0.0000 0.0000 0.0000 -12.8784 16.8572 -28.2562 2.5905 10.0006 28.9788 -0.5979 24.5809 -30.7999 1.6612 8.1216 23.0839 0.0000 0.0000 0.0000 12.7687 -7.1835 -13.0144 -0.6066 -4.9852 13.8662 -6.0890 -25.0410 -58.1658 -4.0327 -12.2038 36.4568 0.0304 0.9320 -16.5266 -1.9566 1.4750 0.8577 -1.7742 0.7829 10.3020 12.6382 17.4227 -14.9759 -20.8676 25.7768 17.1816 -4.8607 10.6358 12.8573 0.0000 0.0000 0.0000 12.2456 -28.1068 -50.0559 131.7839 -52.2502 -95.2435 -0.0000 0.0000 -33.1539 21.5161 -14.4394 -5.6144 -7.1250 0.0000 -0.0000 -4.0609 14.5363 2.9191 0.0000 0.0000 0.0000 -5.0099 10.9372 -46.4842 -143.7032 45.7162 -104.2654 0.0000 -0.0000 -34.5263 -22.4928 -33.4225 12.8478 7.1250 -0.0000 -0.0000 12.9436 -65.0770 -6.3329
-8.5655 1.4705 1.3437 37.4741 83.5915 135.8640 0.0000 0.0000 0.0000 -13.8903 16.5123 -28.4888 2.5252 9.8836 28.6006 -0.6355 24.8852 -31.0297 1.6218 8.0295 22.8036 0.0000 0.0000 0.0000 11.9514 -7.3339 -13.9267 -0.6610 -5.1997 14.4790 -6.0788 -24.7130 -57.9392 -4.0769 -12.2620 36.6651 -0.7061 0.8362 -16.7243 -2.1811 1.5244 0.6295 -1.5846 0.7770 10.1513 12.1631 17.2730 -15.5700 -19.8415 25.5258 17.9846 -4.4700 10.4851 12.9706 -0.0000 -0.0000 0.0000 12.1656 -28.1632 -49.9228 131.7225 -52.2767 -95.1949 -0.0000 0.0000 -33.1278 21.3582 -14.4576 -5.5762 -7.1250 0.0000 -0.0000 -4.1692 14.5344 2.9976 -0.0000 -0.0000 0.0000 -5.1044 10.8045 -46.4247 -143.6334 45.7636 -104.2154 0.0000 -0.0000 -34.5873 -22.0990 -33.7085 12.6988 7.1250 -0.0000 -0.0000 13.6634 -65.2453 -6.7443
-8.5597 1.4752 1.3440 36.9831 83.3969 135.7290 0.0000 0.0000 0.0000 -14.2277 16.3220 -28.8508 2.5096 9.8554 28.5098 -0.5999 24.8829 -31.2679 1.6059 7.9919 22.6894 0.0000 0.0000 0.0000 11.8057 -7.4888 -14.4786 -0.6722 -5.2429 14.6028 -5.9602 -24.8148 -57.6599 -4.0753 -12.2599 36.6578 -0.8913 0.7269 -16.9489 -2.2414 1.4287 0.5363 -1.5670 0.7250 10.1711 12.6158 17.0145 -14.0100 -21.7594 24.9670 14.8314 -5.3993 10.4611 11.7757 -0.0000 -0.0000 0.0000 12.2074 -27.9896 -49.9858 131.7251 -52.2756 -95.1970 -0.0000 0.0000 -33.1196 21.3197 -14.4966 -5.5799 -7.1250 0.0000 -0.0000 -4.1973 14.4972 3.0212 -0.0000 -0.0000 0.0000 -5.1088 10.9353 -46.5078 -143.6273 45.7678 -104.2110 0.0000 -0.0000 -34.6088 -22.1053 -33.6605 12.6873 7.1250 -0.0000 -0.0000 13.6139 -65.2005 -6.7053
-8.5559 1.4775 1.3436 37.8877 83.3908 136.8490 0.0000 0.0000 0.0000 -14.2396 16.2109 -29.0821 2.5001 9.8381 28.4541 -0.4852 24.6673 -31.6964 1.6748 8.1531 23.1800 0.0000 0.0000 0.0000 11.8937 -7.5042 -14.7679 -0.6777 -5.2639 14.6629 -5.8895 -24.9546 -57.5416 -4.0756 -12.2603 36.6592 -0.7933 0.6699 -17.1036 -2.2553 1.3384 0.4859 -1.6599 0.6881 10.2038 12.8486 16.9729 -13.5808 -22.3546 24.8231 13.8637 -5.6850 10.4696 11.4491 0.0000 0.0000 0.0000 12.2160 -27.8642 -49.9194 131.7852 -52.2496 -95.2445 -0.0000 0.0000 -32.7614 21.5499 -14.3755 -5.5998 -7.1250 0.0000 -0.0000 -4.0348 14.6005 2.8947 0.0000 0.0000 0.0000 -5.0065 11.0410 -46.5400 -143.6837 45.7295 -104.2515 0.0000 -0.0000 -34.6088 -22.2495 -33.6109 12.7598 7.1250 -0.0000 -0.0000 13.3977 -65.1926 -6.5946
-8.5526 1.4788 1.3462 40.0192 83.5386 139.1280 0.0000 0.0000 0.0000 -14.0029 16.2063 -29.3295 2.5038 9.8448 28.4755 -0.4542 24.5806 -31.7675 1.6051 7.9900 22.6836 0.0000 0.0000 0.0000 12.1861 -7.2190 -14.7968 -0.6728 -5.2453 14.6095 -6.0122 -24.9353 -57.8824 -4.1209 -12.3196 36.8722 -0.5172 0.7226 -17.2438 -2.1758 1.3461 0.4408 -1.7273 0.7037 10.2378 12.5857 17.0391 -14.3021 -21.4065 24.9902 15.2535 -5.2533 10.4430 11.9242 -0.0000 -0.0000 0.0000 12.0105 -28.0541 -49.7077 131.9317 -52.1861 -95.3603 -0.0000 0.0000 -31.9970 21.9235 -13.8253 -5.4936 -7.1250 0.0000 -0.0000 -3.7529 15.1448 2.6479 -0.0000 -0.0000 0.0000 -5.0515 10.8460 -46.5264 -143.7350 45.6946 -104.2882 0.0000 -0.0000 -34.6711 -22.3189 -33.7570 12.8500 7.1250 -0.0000 -0.0000 13.4419 -65.3545 -6.6670
-8.5518 1.4803 1.3518 43.4490 83.8186 142.6650 0.0000 0.0000 0.0000 -13.5594 16.3078 -29.5686 2.4991 9.8363 28.4483 -0.5185 24.6827 -31.4990 1.3777 7.4275 20.9883 0.0000 0.0000 0.0000 12.6969 -6.7521 -14.7505 -0.6735 -5.2480 14.6172 -6.2419 -24.7885 -58.4494 -4.1412 -12.3460 36.9672 -0.1611 0.8154 -17.4114 -1.9450 1.3729 0.4412 -1.6701 0.7270 10.3362 12.0076 17.2613 -16.2637 -19.0954 25.5430 19.1171 -4.1489 10.4162 13.3974 0.0000 0.0000 0.0000 11.6735 -28.3275 -49.6394 132.1057 -52.1101 -95.4977 -0.0000 0.0000 -31.5667 22.1423 -13.1695 -5.2967 -7.1250 0.0000 -0.0000 -3.5715 15.8209 2.4674 0.0000 0.0000 0.0000 -5.4141 10.5196 -46.5653 -143.7012 45.7176 -104.2640 0.0000 -0.0000 -34.7995 -22.4453 -33.8659 12.9635 7.1250 -0.0000 -0.0000 13.3853 -65.4964 -6.6823
-8.5474 1.4819 1.3538 43.6834 83.7366 143.0990 0.0000 0.0000 0.0000 -13.6958 16.2423 -29.7962 2.4881 9.8162 28.3836 -0.5680 24.7983 -31.3488 1.2561 7.1050 20.0269 0.0000 0.0000 0.0000 12.6698 -6.5705 -14.9058 -0.6747 -5.2525 14.6302 -6.3504 -24.7341 -58.7247 -4.1696 -12.3828 37.0999 -0.3194 0.7053 -17.5586 -1.8499 1.2510 0.4405 -1.5069 0.6575 10.4094 11.8343 17.3821 -16.6639 -18.7201 25.7354 19.6317 -3.9200 10.4551 13.6219 -0.0000 0.0000 0.0000 11.5488 -28.1756 -49.7938 132.1097 -52.1084 -95.5008 -0.0000 0.0000 -31.6484 22.1133 -13.2079 -5.3042 -7.1250 0.0000 -0.0000 -3.5932 15.7829 2.4854 -0.0000 0.0000 0.0000 -5.7305 10.6537 -46.6872 -143.6191 45.7734 -104.2051 0.0000 -0.0000 -34.8156 -22.5081 -33.8720 13.0044 7.1250 -0.0000 -0.0000 13.3148 -65.5202 -6.6539
-8.5382 1.4843 1.3549 40.7581 83.3338 140.4650 0.0000 0.0000 0.0000 -14.3574 15.9912 -30.0139 2.4762 9.7946 28.3141 -0.5973 24.9313 -31.3625 1.2288 7.0303 19.8050 0.0000 0.0000 0.0000 12.1156 -6.4749 -15.1775 -0.6740 -5.2497 14.6221 -6.4520 -24.5965 -58.9314 -4.2909 -12.5378 37.6621 -0.8928 0.4573 -17.6700 -1.9895 1.0601 0.3694 -1.3822 0.5423 10.3815 12.0014 17.6245 -16.9482 -18.5475 26.0154 19.8562 -3.7869 10.5607 13.8113 0.0000 0.0000 0.0000 11.6591 -27.8048 -50.0801 132.0128 -52.1507 -95.4244 -0.0000 0.0000 -32.4728 21.3016 -14.2044 -5.4653 -7.1250 0.0000 -0.0000 -4.1958 14.8089 2.9922 0.0000 0.0000 0.0000 -5.6878 11.1168 -46.7623 -143.6160 45.7755 -104.2029 0.0000 -0.0000 -34.7484 -22.4497 -33.8847 12.9724 7.1250 -0.0000 -0.0000 13.3966 -65.5159 -6.6941
-8.5342 1.4891 1.3589 40.6469 83.3013 140.4770 0.0000 0.0000 0.0000 -14.3681 15.7391 -30.0083 2.4561 9.7576 28.1953 -0.5974 25.0565 -31.5606 1.2619 7.1209 20.0739 0.0000 0.0000 0.0000 12.0815 -6.1354 -15.2722 -0.6855 -5.2936 14.7478 -6.6390 -24.3562 -59.3199 -4.3391 -12.5985 37.8836 -0.9768 0.3902 -17.6507 -2.0215 0.9915 0.2370 -1.3863 0.5078 10.2211 12.3237 17.6749 -16.6678 -18.8540 26.0688 19.6319 -3.9420 10.6095 13.7839 0.0000 0.0000 0.0000 11.7725 -27.7592 -50.2929 131.9158 -52.1930 -95.3477 -0.0000 0.0000 -33.8272 19.9669 -15.4896 -5.5420 -7.1250 0.0000 -0.0000 -5.1590 13.5999 3.8171 0.0000 0.0000 0.0000 -5.5540 11.2394 -46.6469 -143.6704 45.7385 -104.2419 0.0000 -0.0000 -34.7874 -22.4020 -33.9300 12.9576 7.1250 -0.0000 -0.0000 13.4945 -65.5466 -6.7534
-8.5334 1.4945 1.3626 42.9383 83.4755 142.8480 0.0000 0.0000 0.0000 -13.9859 15.5456 -30.0085 2.4358 9.7202 28.0752 -0.5698 25.0914 -31.7994 1.3417 7.3338 20.7081 0.0000 0.0000 0.0000 12.4416 -5.8972 -15.4027 -0.7027 -5.3581 14.9328 -6.7763 -24.2177 -59.6265 -4.2895 -12.5360 37.6554 -0.7619 0.4341 -17.6801 -1.8964 0.9912 0.1729 -1.3715 0.5147 10.1674 12.3098 17.6140 -16.5164 -18.9348 25.9963 19.5248 -3.9984 10.5899 13.7106 0.0000 0.0000 0.0000 11.7314 -27.9286 -50.2042 131.9237 -52.1895 -95.3540 -0.0000 0.0000 -33.6736 20.1530 -15.3828 -5.5603 -7.1250 0.0000 -0.0000 -5.0288 13.6914 3.7102 0.0000 0.0000 0.0000 -5.6485 11.0887 -46.6240 -143.6612 45.7448 -104.2353 0.0000 -0.0000 -34.8692 -22.3985 -33.9966 12.9770 7.1250 -0.0000 -0.0000 13.5582 -65.6104 -6.8057
-8.5281 1.5001 1.3646 41.4432 83.1879 141.5850 0.0000 0.0000 0.0000 -14.4395 15.4843 -30.2985 2.4304 9.7103 28.0437 -0.5798 25.0802 -31.7155 1.3341 7.3138 20.6485 0.0000 0.0000 0.0000 12.1314 -5.9908 -15.7228 -0.7068 -5.3734 14.9767 -6.8127 -24.1359 -59.6830 -4.2842 -12.5292 37.6309 -1.1440 0.3863 -17.8736 -1.9839 1.0241 0.1177 -1.2399 0.5152 10.2120 12.1834 17.5502 -16.5609 -18.6373 25.8745 19.6739 -3.9064 10.5443 13.6787 0.0000 0.0000 0.0000 11.4864 -28.0679 -49.5152 132.1918 -52.0724 -95.5656 -0.0000 0.0000 -31.4001 22.2430 -13.2816 -5.3675 -7.1250 0.0000 -0.0000 -3.5075 15.6907 2.4328 0.0000 0.0000 0.0000 -5.6509 10.9969 -46.6119 -143.6447 45.7560 -104.2235 0.0000 -0.0000 -34.8527 -22.3963 -34.0257 12.9851 7.1250 -0.0000 -0.0000 13.5869 -65.6380 -6.8290
-8.5247 1.5065 1.3649 39.2609 82.8147 139.6510 0.0000 0.0000 0.0000 -15.0805 15.4977 -30.6723 2.4322 9.7136 28.0542 -0.6539 25.1657 -31.3563 1.2597 7.1148 20.0558 0.0000 0.0000 0.0000 11.6987 -6.2505 -16.1167 -0.7089 -5.3812 14.9992 -6.7485 -24.0959 -59.4816 -4.3012 -12.5507 37.7091 -1.5646 0.2638 -18.0701 -2.1594 0.9780 0.0604 -1.2035 0.4795 10.2562 12.2144 17.5484 -16.5379 -18.5896 25.8311 19.5946 -3.9051 10.5386 13.6280 0.0000 0.0000 0.0000 11.3492 -27.9625 -49.4130 132.3767 -51.9908 -95.7114 -0.0000 0.0000 -31.4106 22.1753 -13.3070 -5.3595 -7.1250 0.0000 -0.0000 -3.5552 15.6708 2.4676 0.0000 0.0000 0.0000 -5.4225 11.2077 -46.5252 -143.7053 45.7148 -104.2669 0.0000 -0.0000 -34.6657 -22.4481 -33.8512 12.9605 7.1250 -0.0000 -0.0000 13.3688 -65.4829 -6.6698
-8.5274 1.5133 1.3649 40.1230 82.7967 140.6660 0.0000 0.0000 0.0000 -15.0790 15.4260 -30.8977 2.4284 9.7066 28.0317 -0.6571 25.1890 -31.3725 1.2712 7.1460 20.1488 0.0000 0.0000 0.0000 11.8315 -6.4698 -16.4736 -0.7233 -5.4343 15.1516 -6.7908 -23.6912 -59.3778 -4.3834 -12.6539 38.0862 -1.4405 0.1671 -18.1548 -2.1517 0.8247 0.1006 -1.3071 0.4119 10.3486 12.0394 17.6420 -16.8591 -18.4528 25.9482 19.6219 -3.7783 10.5653 13.6695 -0.0000 0.0000 0.0000 11.4300 -27.7111 -50.0905 132.3015 -52.0240 -95.6521 -0.0000 0.0000 -33.3063 20.5008 -15.3058 -5.6368 -7.1250 0.0000 -0.0000 -4.7907 13.7337 3.5290 -0.0000 0.0000 0.0000 -5.3421 11.5282 -46.6304 -143.7401 45.6911 -104.2918 0.0000 -0.0000 -34.4875 -22.5445 -33.5939 12.9358 7.1250 -0.0000 -0.0000 13.0283 -65.2591 -6.4299
